<svg xmlns="http://www.w3.org/2000/svg" viewBox="23 10 54 86">
  <path fill="#ffffff" d="M68.8,15.9h-9.1c-2.7-3.3-6.1-5.4-9.7-5.4s-7,2.1-9.7,5.4h-9.1c-4.3,0-7.7,3.5-7.7,7.7v37.6
  c0,4.3,3.5,7.7,7.7,7.7h1.8c1.5,3.2,3.5,5.9,6.5,7.3l-1.7,11c-0.1,0.6,0.1,1.1,0.4,1.6c0.4,0.4,0.9,0.7,1.5,0.7h20.5
  c0.6,0,1.1-0.2,1.5-0.7c0.4-0.4,0.5-1,0.4-1.6l-1.7-11c3.1-1.4,5.1-4.1,6.5-7.3h1.8c4.3,0,7.7-3.5,7.7-7.7V23.7
  C76.6,19.4,73.1,15.9,68.8,15.9z M50,14.3c6.9,0,13,12.3,13,22c0,8.2-4.4,12.4-13,12.4s-13-4.2-13-12.4C37,26.7,43.1,14.3,50,14.3z
  M27.3,23.7c0-2.1,1.7-3.9,3.9-3.9h6.4c-0.8,1.3-1.4,2.7-2,4.2h-8.3V23.7z M29.5,55.6v2.6c0,0,0,0,0,0.1c0,0.1,0,0.1,0,0.1
  c0,0.1,0,0.2,0,0.3c0,0,0,0,0,0.1c0.2,0.7,0.4,1.4,0.6,2.1c0.4,1.4,0.8,2.8,1.3,4.3h-0.3c-2.1,0-3.9-1.7-3.9-3.9V27.9h7
  c-0.8,2.8-1.2,5.7-1.2,8.5c0,5.5,1.7,9.7,5,12.5h-1.9C32.5,48.9,29.5,51.9,29.5,55.6z M57.9,73.1c-1,0.2-1.6,1.2-1.4,2.2L58,85.7H42
  l1.6-10.3c0.2-1-0.5-1.9-1.4-2.2c-4.7-1.2-6.5-7.4-8.1-13h32C64.4,65.8,62.6,72,57.9,73.1z M66.6,56.3H33.4v-0.7
  c0-1.6,1.3-2.9,2.9-2.9h27.5c1.6,0,2.9,1.3,2.9,2.9V56.3z M72.7,61.3c0,2.1-1.7,3.9-3.9,3.9h-0.3c0.5-1.5,0.9-2.9,1.3-4.3
  c0.2-0.7,0.4-1.4,0.6-2.1c0,0,0,0,0-0.1c0-0.1,0-0.2,0-0.3c0-0.1,0-0.1,0-0.2c0,0,0,0,0-0.1v-2.6c0-3.7-3-6.8-6.8-6.8h-1.9
  c3.2-2.8,5-7,5-12.5c0-2.8-0.4-5.7-1.2-8.5h7V61.3z M72.7,24h-8.3c-0.6-1.5-1.3-2.9-2-4.2h6.4c2.1,0,3.9,1.7,3.9,3.9V24z"></path>
</svg>