<?xml version="1.0" encoding="UTF-8" standalone="no"?>
<svg
   id="svg"
   version="1.1"
   width="310.80798"
   height="59.319889"
   viewBox="0 0 310.80798 59.319892"
   xmlns="http://www.w3.org/2000/svg"
   xmlns:svg="http://www.w3.org/2000/svg">
  <defs
     id="defs1">
    <clipPath
       clipPathUnits="userSpaceOnUse"
       id="clipPath39">
      <path
         id="path40"
         style="fill:#ff0000;fill-opacity:1;fill-rule:nonzero;stroke:none"
         d="m 84.696893,92.433688 v 16.265622 c 1.197793,-5.261 2.56466,-10.483346 4.412109,-15.554685 0.101691,-0.220937 0.204046,-0.46083 0.310547,-0.710937 z m 11.52539,0 c 0.305966,2.006146 -0.02141,4.078816 -0.330078,6.058594 -0.202692,0.982536 -0.413658,1.963638 -0.628906,2.943358 0.09494,0.17304 0.153263,0.33369 0.179687,0.49414 0.102506,-0.14144 0.185781,-0.36179 0.210938,-0.39648 l 0.002,-0.002 h 0.002 0.002 0.002 v 0.002 0.002 c 7.5e-5,0.006 3.15e-4,0.0175 -0.002,0.0312 -0.02448,0.16527 -0.110061,0.31127 -0.205078,0.45313 0.01413,0.15097 0.0013,0.30292 -0.0332,0.46289 0.02087,-0.0292 0.04157,-0.0588 0.0625,-0.0879 0.280016,-0.38947 2.266675,-3.154469 3.035156,-3.308598 0.877566,-0.176008 1.753808,0.356583 2.630858,0.535156 0.12663,0.416822 0.3271,0.819412 0.3789,1.251952 0.0734,0.61268 -0.25895,1.86215 -0.40625,2.39649 -0.54263,1.96853 -1.276739,3.88104 -1.89257,5.82617 -0.356131,1.05484 -0.714697,2.10971 -1.072266,3.16406 3.804226,-4.94425 7.646836,-9.86097 11.548826,-14.728516 0.66824,-0.798455 1.32177,-1.607918 2.0039,-2.394531 1.53494,-1.770025 3.48308,-4.016768 4.53321,0.675781 0.18811,0.840598 -0.53363,1.638235 -0.83985,2.44336 -0.4119,1.083014 -0.87641,2.146036 -1.31445,3.218746 -1.93044,4.53973 -3.84869,9.08249 -5.73437,13.64063 -0.10043,1.24495 -0.41712,2.50097 -0.66993,3.62695 -0.32684,1.15719 -0.64965,2.32338 -1.00586,3.47852 0.0267,0.0263 0.0532,0.0539 0.0801,0.0801 0.493,-0.13336 0.98718,-0.26578 1.48242,-0.39454 0.16024,-2.6953 0.6902,-5.88793 2.10938,-7.99414 0.31471,-0.46705 0.75937,-0.83174 1.13867,-1.24804 0.40928,-0.23089 0.78847,-0.52338 1.22656,-0.69336 1.60339,-0.62211 3.38651,-0.21936 4.59375,0.98828 0.28175,0.28184 0.49234,0.62588 0.73829,0.93945 0.1764,0.37047 0.38853,0.7259 0.52929,1.11133 0.64853,1.77573 0.60266,3.70304 0.41797,5.58398 1.18819,0.62414 1.068,2.0757 -0.35742,2.69532 -0.27508,1.47838 -0.58261,3.09084 -1.53516,4.26757 -1.02755,1.2694 -2.34694,1.54589 -3.88086,1.46485 -0.47547,-0.0689 -0.95645,-0.10456 -1.42578,-0.20703 0.29046,2.14232 0.72791,4.26445 1.28906,6.35351 0.17863,0.66497 0.39753,1.42103 0.64258,2.17383 2.15599,0.98201 4.29934,1.9937 6.47266,2.9375 0.22798,0.10136 0.45673,0.20211 0.68555,0.30274 h 43.16993 c 0.016,-0.0614 0.0315,-0.12177 0.0391,-0.17579 -4e-5,-0.0161 -0.002,-0.0325 -0.002,-0.0488 -0.004,-1.52655 -0.008,-3.05375 -0.0117,-4.58008 -0.0273,6e-4 -0.0546,0.002 -0.082,0.002 -1.47301,-0.12962 -3.20828,-0.54444 -3.96289,-1.99609 -0.2042,-0.39283 -0.24533,-0.85171 -0.36719,-1.27735 0.0409,-0.33025 0.0468,-0.66629 0.12305,-0.99023 0.0416,-0.17691 0.094,-0.34941 0.15429,-0.51953 -0.88558,0.57816 -1.02226,-0.32627 -1.21289,-1.17188 -0.0479,-0.22008 -0.0938,-0.43983 -0.14062,-0.66015 -0.25769,-0.26745 -0.26653,-0.68472 -0.23438,-1.125 -0.20976,-1.03033 -0.40664,-2.06262 -0.59179,-3.09766 -0.2459,-0.007 -0.49377,-0.0169 -0.74024,-0.0293 -1.14776,-0.0577 -3.0481,-0.20779 -4.17578,-0.65625 -0.58254,-0.23166 -1.08335,-0.63161 -1.625,-0.94726 -0.23833,-0.6802 -0.73034,-1.32044 -0.71484,-2.04102 0.0233,-1.08698 1.25219,-1.9187 2.05273,-2.33008 1.26462,-0.64985 2.68155,-1.05632 4.10352,-1.40234 -0.0778,-0.66337 -0.15029,-1.32753 -0.2168,-1.99219 -0.17685,-2.39545 -0.33194,-3.67751 -0.27734,-6.05664 0.012,-0.52438 0.0317,-1.05114 0.0742,-1.57422 -0.29443,-2.4229 -0.62256,-4.83977 -1.04296,-7.24218 -0.25858,-0.57116 -0.51261,-1.147804 -0.75977,-1.730473 -0.36772,-0.866892 -1.73333,-4.217716 -1.86328,-5.501953 -0.0339,-0.334525 -0.002,-0.669189 0.0469,-1.003906 z m 60.193357,0 c 0.53908,1.218562 0.9022,2.508307 1.23438,3.794922 0.25473,1.14975 0.48206,2.304973 0.68945,3.46289 0.1495,0.32795 0.30214,0.65481 0.45508,0.98047 0.0164,-0.18863 0.0447,-0.36537 0.0879,-0.52344 0.49813,-1.822338 1.7971,-2.484037 3.50391,-2.074217 0.35941,0.0863 0.69104,0.260781 1.03711,0.390625 0.33037,0.194216 0.672,0.371453 0.99218,0.582031 1.98413,1.304901 3.58595,3.101661 5.03711,4.958981 1.34379,1.82179 2.55728,3.75924 4.53321,4.97071 1.75798,1.16732 3.53217,2.30902 5.3164,3.43554 0.59713,-0.17509 1.20218,-0.32377 1.81836,-0.42187 0.20521,-0.0104 0.39814,-0.0102 0.58008,0.002 -0.4002,-0.77328 -0.76816,-1.55957 -1.09961,-2.35547 -0.4522,-1.08584 -0.75995,-2.2269 -1.14063,-3.33984 -0.20585,-1.04191 -0.4921,-2.07058 -0.61914,-3.125 -0.34511,-2.86426 -0.067,-6.345365 2.58399,-8.087891 0.42616,-0.280129 0.93582,-0.403947 1.4043,-0.605469 1.29264,-0.18483 1.792,-0.40528 3.08593,0.0078 1.62662,0.519368 2.71059,1.793618 3.14649,3.417969 0.14675,0.546697 0.15086,1.120684 0.22656,1.681641 -0.0203,0.66893 5.5e-4,1.34135 -0.0606,2.00781 -0.15308,1.67522 -0.56156,3.63367 -0.95117,5.2461 -0.42747,1.76908 -0.91509,3.5244 -1.43945,5.26758 0.42425,-0.2159 0.84424,-0.44124 1.25781,-0.67774 -0.0557,-0.36581 -0.10342,-0.72016 -0.11719,-0.94922 -0.0189,-0.31995 0.007,-0.64042 0.01,-0.96093 0.1514,-0.3941 0.19935,-0.84574 0.45508,-1.18165 1.00422,-1.31908 2.65971,-0.80837 3.7207,0.0371 0.55597,0.62314 0.91431,0.84264 1.00391,1.76758 0.11876,1.22536 -0.63529,2.11722 -1.50196,2.83399 0.0375,0.21108 0.0752,0.42185 0.11328,0.63281 0.41701,0.0486 0.83382,0.10138 1.25,0.1582 0.55342,0.10339 0.96851,0.17819 1.32618,0.24414 -0.0114,-0.71348 -0.005,-1.40721 0.0117,-2.05859 0.11983,-4.6221 0.83686,-9.20908 1.81836,-13.718753 0.4224,-1.574328 0.96878,-3.931967 1.67188,-5.800781 z m 48.08399,0 c 0.0492,0.511152 0.0968,1.022549 0.10351,1.535156 0.028,2.141197 -0.22893,4.770868 -0.48828,6.859376 -0.32426,2.6112 -0.74218,5.20946 -1.24219,7.79297 1.05933,-0.65057 2.28064,-1.17832 3.48047,-0.51953 1.12474,0.61756 1.2133,1.33788 1.66602,2.41601 0.13098,0.53575 0.25372,1.07265 0.37109,1.61133 0.44244,-0.11235 0.90321,-0.19335 1.38672,-0.23633 1.78721,-0.15884 3.17805,0.2438 4.51953,1.02735 0.0339,-0.12305 0.0674,-0.24617 0.10156,-0.36914 0.0743,-0.62127 -0.0792,-1.43242 0.44336,-1.70118 0.0135,-0.007 0.0276,-0.0146 0.041,-0.0215 0.0243,-0.0863 0.048,-0.17154 0.0723,-0.25781 -0.002,0.0108 -0.001,0.0183 0,0.0234 v 0.002 0.002 h 0.002 v 0.002 h 0.002 v 0.002 h 0.002 0.002 c 0.0656,-0.0134 0.4028,-0.44389 1.05664,-0.32618 2.60281,-1.17361 2.34716,-0.26952 2.1582,0.88086 -0.0608,0.21612 -0.1206,0.43237 -0.18164,0.64844 0.32243,0.47195 -0.33264,1.15393 -0.4668,1.73047 -0.13328,0.57274 -0.26136,1.14652 -0.38476,1.7207 0.14946,0.1549 0.29674,0.31365 0.4375,0.47657 0.10898,0.12614 0.216,0.2544 0.32226,0.38281 0.50653,-0.0453 1.06949,-0.0925 1.75391,-0.14453 0.18137,-0.0138 0.36353,-0.0282 0.54492,-0.043 0.0535,-0.17804 0.11014,-0.35543 0.17188,-0.53125 0.50118,-1.42738 1.11134,-2.85215 2.76172,-3.3418 0.61523,-0.18253 1.27214,0.17065 1.9082,0.25586 0.0918,0.0732 0.18634,0.14502 0.28125,0.21484 0.65137,-0.56838 1.23708,-1.18378 1.76562,-1.84375 0.82718,-1.71323 1.6788,-3.41498 2.58594,-5.08398 0.31772,-0.58457 0.36344,-1.61668 1.02149,-1.71484 3.79336,-0.56587 3.35908,0.30184 2.97656,1.57812 -0.68271,1.56547 -1.4738,3.0852 -2.25781,4.60156 -0.46359,0.82212 -0.95518,1.57875 -1.4961,2.29102 -0.64448,1.32101 -1.11846,2.32807 -1.77539,3.72852 0.1564,0.31387 0.30468,0.63517 0.44336,0.95898 1.67828,-3.13258 3.54054,-6.16069 5.73633,-8.96094 1.32077,-1.28363 2.68597,-3.24195 4.94922,-2.93359 0.78209,0.10655 1.40407,0.83539 1.83594,1.49609 0.3405,0.52092 0.32489,1.21384 0.34179,1.83594 0.0472,1.73108 -0.49714,3.38192 -0.90429,5.0332 -0.20852,0.61392 -0.40372,1.23264 -0.60938,1.84766 1.13697,-0.47621 2.32635,-0.7704 3.53711,-0.92774 V 92.433688 Z M 92.909783,92.546969 c -0.01237,0.02575 -0.02345,0.05115 -0.0332,0.07617 -0.243531,0.624635 -0.526204,1.232858 -0.789062,1.849609 -1.128853,3.148041 -2.074186,6.353072 -2.91211,9.587892 0.418775,0.24332 0.812794,0.5415 1.207032,0.83789 0.08702,-0.18591 0.17267,-0.37076 0.259765,-0.55664 0.239476,-0.49651 0.74997,-1.55924 1.175781,-2.43164 0.302446,-1.35685 0.600054,-2.716434 0.88086,-4.078127 0.261413,-1.725421 0.587873,-3.55718 0.210937,-5.285156 z m 108.351567,0.160156 c -0.008,0.01792 -0.0151,0.03672 -0.0215,0.05469 -1.30076,3.632542 -0.7569,1.985333 -1.90234,6.3125 -0.92754,4.305935 -1.60864,8.683995 -1.71485,13.095705 -0.006,0.25505 -0.0117,0.51739 -0.0137,0.78515 0.41663,-0.40344 0.84126,-0.79826 1.27344,-1.18554 0.84581,-3.76854 1.52993,-7.5748 2.00391,-11.40821 0.24509,-1.982189 0.48922,-4.469277 0.45703,-6.505855 -0.006,-0.383826 -0.0416,-0.766347 -0.082,-1.148438 z m -48.16993,0.400391 -0.002,0.0019 v 0.002 c -0.005,0.03908 0.0603,0.258765 0.13672,0.263672 0.0113,7.25e-4 0.0219,0.0013 0.0332,0.0019 -0.049,-0.08736 -0.0999,-0.173366 -0.15429,-0.257812 l -0.002,-0.0019 -0.002,-0.002 v -0.0019 l -0.002,-0.002 -0.002,-0.0019 -0.002,-0.002 h -0.002 z m -37.62109,2.757813 -0.002,0.0019 h -0.002 l -0.002,0.002 -0.002,0.0019 -0.002,0.002 -0.002,0.0019 c -0.0705,0.06974 -0.14316,0.142638 -0.2168,0.21875 0.0309,0.0093 0.0632,0.01617 0.0937,0.02344 h 0.002 0.002 c 0.002,-7.8e-5 0.003,-4.1e-5 0.004,0 10e-4,-6.3e-5 0.005,1.52e-4 0.006,0 0.0661,-0.01486 0.13385,-0.19613 0.1289,-0.242188 v -0.0019 -0.002 -0.002 h -0.002 v -0.002 h -0.002 v -0.0019 h -0.002 z m 69.01172,1.625 c -0.35281,0.0121 -0.72416,0.09941 -1.06055,0.195312 -0.20068,0.115096 -0.42812,0.192611 -0.60156,0.345703 -0.39103,0.345144 -0.57712,0.931704 -0.66992,1.41211 -0.43508,2.252166 0.0384,3.994216 0.50586,6.201176 0.34268,0.97429 0.62226,1.97378 1.02734,2.92382 0.15226,0.3571 0.31253,0.71184 0.48047,1.06446 0.34342,-1.20275 0.66582,-2.41108 0.95898,-3.62696 0.36009,-1.49347 0.73939,-3.31054 0.875,-4.86718 0.0472,-0.54272 0.0216,-1.09009 0.0312,-1.63477 -0.0641,-0.372863 -0.0785,-0.756713 -0.19336,-1.117187 -0.23073,-0.72429 -0.76551,-0.916658 -1.35351,-0.896484 z m -86.212892,3.130861 v 0.002 c -0.0085,0.0362 -0.01246,0.36526 -0.01953,0.49024 0.0055,0.004 0.01006,0.008 0.01563,0.0117 0.01737,-0.1759 0.02176,-0.33534 0.0098,-0.47265 -0.0013,-0.0144 -0.0028,-0.023 -0.0039,-0.0273 v -0.002 -0.002 z m 23.396482,0.14648 c 0.77747,0.006 1.67388,0.80893 1.98828,2.39258 0.10864,0.54721 0.15942,1.11338 0.20899,1.67188 0.10438,0.58263 0.21232,1.16377 0.29492,1.75 0.0457,0.31081 0.0735,0.62441 0.0977,0.9375 0.24819,3.21956 -3.01645,3.4666 -3.25196,0.24609 -0.0178,-0.24357 -0.0406,-0.4868 -0.0762,-0.72852 -0.0898,-0.64188 -0.22436,-1.27613 -0.31445,-1.91797 -0.0573,-0.6554 -0.15456,-1.30475 -0.2207,-1.95898 -0.16239,-1.60637 0.49596,-2.39826 1.27343,-2.39258 z m 39.63086,0.38867 c -0.0106,7e-5 -0.0229,8.4e-4 -0.0352,0.002 -0.0484,0.003 -0.10459,0.012 -0.125,0.0273 l -0.002,0.002 -0.002,0.002 -0.002,0.002 v 0.002 0.002 l -0.002,0.002 v 0.002 0.002 l 0.002,0.002 v 0.002 l 0.002,0.002 v 0.002 h 0.002 v 0.002 l 0.002,0.002 c 0.0867,0.0789 0.22453,0.0895 0.34179,0.0879 0.0545,-7.7e-4 0.11533,-0.026 0.17578,-0.0547 -0.10869,-0.0359 -0.21691,-0.075 -0.33007,-0.0879 -0.008,-9.2e-4 -0.0169,-0.002 -0.0273,-0.002 z m 0.77735,0.29883 c 0.045,0.22728 0.007,0.48833 0.0488,0.71875 0.12811,0.70976 0.27094,1.41658 0.40625,2.125 0.25747,1.03076 0.53035,2.05801 0.81836,3.08008 0.32295,-0.65117 0.81804,-1.38917 1.63477,-1.27539 0.68728,0.0957 1.28912,0.59906 1.76562,1.10352 0.25558,0.27053 0.33182,1.94902 0.35352,2.21093 0.001,0.0393 0.003,0.0779 0.004,0.11719 0.56941,-0.0715 1.1412,-0.10681 1.71484,-0.0977 0.21945,0.004 0.43869,0.0139 0.6582,0.0312 0.006,-0.0249 0.0117,-0.0494 0.0176,-0.0742 -0.96477,-1.07767 -1.80205,-2.27923 -2.66797,-3.45313 -1.32925,-1.75996 -2.86384,-3.3488 -4.7539,-4.48633 z m -51.73829,0.51563 c -1.99481,2.50874 -3.97359,5.02862 -5.9414,7.55859 0.22728,-4.2e-4 0.45482,0.0201 0.68164,0.0625 0.0882,-0.24176 0.17898,-0.48292 0.27344,-0.72266 0.004,1.9e-4 0.009,-1.8e-4 0.0137,0 0.007,-0.0329 0.0153,-0.0574 0.0293,-0.0703 4.5e-4,-3.5e-4 0.003,-0.003 0.004,-0.004 h 0.002 c 0.002,-10e-4 0.008,-0.003 0.01,-0.004 0.0111,-0.002 0.0273,10e-4 0.043,0.0117 0.0278,0.0189 0.0426,0.0437 0.0488,0.0723 0.63934,0.0168 1.28864,-0.0341 1.92773,-0.0156 0.96397,-2.29879 1.9341,-4.59401 2.9082,-6.88867 z m 120.34571,2.19531 c -0.27154,0.0539 -0.27034,0.13989 -0.10938,0.25195 0.0368,-0.0836 0.0734,-0.16804 0.10938,-0.25195 z m -133.99219,2.25 c -1.249441,1.90408 -2.424797,3.85781 -3.613281,5.79883 -0.08806,0.14083 -0.1749,0.28224 -0.261719,0.42383 -0.02773,0.13963 -0.0547,0.27824 -0.08203,0.41796 -0.429488,2.53437 -0.844811,5.10127 -1.041016,7.67383 0.08429,-0.11109 0.167642,-0.22291 0.251953,-0.33398 1.402796,-4.11355 2.805093,-8.22594 4.195313,-12.34375 0.182932,-0.54569 0.367947,-1.09101 0.55078,-1.63672 z m 141.21289,0.96289 c -0.30028,0.0316 0.43533,1.0071 0.13477,1.48438 -0.36298,0.57641 -0.92352,1.00264 -1.38477,1.5039 -1.69554,2.23183 -3.18715,4.59983 -4.54883,7.04492 0.74136,0.47737 0.87933,1.33645 0.35547,2.00391 0.65107,0.11529 1.38219,0.27478 2.04297,0.49805 0.73059,-1.46233 1.38504,-2.97258 1.9707,-4.52149 0.36409,-0.96292 0.65761,-1.95217 0.98633,-2.92773 0.33995,-1.40645 0.8144,-2.81081 0.7461,-4.28516 -0.013,-0.28108 0.009,-0.77748 -0.27149,-0.80078 -0.0119,-9.9e-4 -0.0216,-0.001 -0.0312,0 z m -71.54883,1.29688 c -0.0136,0.014 -0.0533,0.0741 -0.11523,0.19335 0.0718,-0.0918 0.11147,-0.16648 0.11719,-0.1875 v -0.002 -0.002 -0.002 z m -6.61718,0.94335 c 0.15366,1.3245 0.30071,2.64868 0.45117,3.97266 0.0992,-0.55947 0.32864,-1.03322 0.64453,-1.43945 -0.3167,-0.76163 -0.64077,-1.52057 -0.97852,-2.27344 -0.039,-0.087 -0.0785,-0.1735 -0.11718,-0.25977 z m 30.3496,0.24219 v 0.002 h -0.002 v 0.002 c -0.075,0.10763 -0.12326,0.20833 -0.15039,0.30859 0.0744,-0.0772 0.14235,-0.16318 0.19531,-0.25586 l 0.002,-0.002 v -0.002 -0.002 -0.002 -0.002 -0.002 c -0.004,-0.0141 -0.0183,-0.0335 -0.0293,-0.041 l -0.002,-0.002 h -0.002 l -0.002,-0.002 h -0.002 -0.002 -0.002 -0.002 z m 15.31055,1.12305 -0.002,0.002 v 0.002 h -0.002 -0.002 c -0.11526,0.0338 -0.22766,0.0797 -0.33594,0.13281 0.0345,0.01 0.0691,0.0172 0.0977,0.0137 0.12451,-0.0153 0.25657,-0.0298 0.36328,-0.0957 h 0.002 l 0.002,-0.002 0.002,-0.002 0.002,-0.002 v -0.002 -0.002 -0.002 -0.002 -0.002 h -0.002 v -0.002 c -8.3e-4,-8.7e-4 -0.005,-0.005 -0.006,-0.006 -0.0214,-0.0154 -0.0721,-0.0315 -0.10547,-0.0312 -0.001,10e-6 -0.003,3e-5 -0.004,0 h -0.002 -0.002 -0.002 -0.002 z m -0.56445,0.25586 c -0.27985,0.15719 -0.54173,0.34327 -0.8125,0.51562 -0.74794,0.56804 -1.48133,1.15685 -2.19531,1.76758 -0.0496,0.21204 -0.0998,0.42493 -0.15039,0.63672 -0.14378,0.48355 -0.28732,1.01487 -0.44141,1.57227 0.21186,0.0228 0.42263,0.0438 0.63476,0.0645 0.45995,-0.37858 0.9346,-0.74157 1.42774,-1.08399 0.68976,-0.44415 1.36206,-0.88271 2.04492,-1.27734 -0.12246,-0.60457 -0.25201,-1.20691 -0.38867,-1.80859 -0.026,-0.12775 -0.10871,-0.26043 -0.11914,-0.38672 z m -36.36133,1.45312 c -0.42638,0.007 -0.8508,0.0457 -1.27344,0.10938 0.01,0.45112 0.0173,0.90235 0.0254,1.35351 0.50486,-0.0939 1.0121,-0.18034 1.51953,-0.25976 0.0739,-0.3981 0.14502,-0.79645 0.21485,-1.19531 -0.16239,-0.007 -0.32416,-0.01 -0.48633,-0.008 z m -64.40039,0.0937 c -0.46695,0.22842 -0.8197,0.63913 -1.10547,1.07227 -0.16207,0.69213 -0.14703,1.39994 -0.0156,2.09961 0.28771,-0.81829 0.57962,-1.63364 0.86914,-2.45117 0.0821,-0.2407 0.16634,-0.48127 0.25195,-0.72071 z m 10.16406,2.09961 c -0.31815,0.0141 -0.63331,0.22042 -1.00781,0.53711 -1.01633,1.62012 -1.47195,3.68586 -1.66211,5.68946 1.37869,-0.29165 2.76758,-0.53007 4.16797,-0.67774 0.1673,-1.53261 0.27955,-3.16162 -0.29297,-4.53516 -0.0777,-0.18641 -0.20061,-0.35197 -0.30078,-0.52734 -0.30606,-0.33105 -0.57542,-0.47646 -0.83984,-0.48633 -0.0213,-7.9e-4 -0.0433,-9.4e-4 -0.0645,0 z m 96.25977,0.1875 c -0.50433,-0.004 -0.99863,0.0769 -1.48047,0.21875 0.0728,0.40697 0.14422,0.81487 0.21289,1.22266 0.62631,0.0944 1.24968,0.20526 1.87109,0.33984 0.035,0.007 0.0713,0.0142 0.10743,0.0215 0.84165,-0.16221 1.66411,-0.24017 2.1582,-0.28711 0.0265,-0.11796 0.0527,-0.23572 0.0801,-0.35352 -0.90856,-0.61391 -1.27289,-0.98129 -2.44141,-1.1289 -0.17039,-0.0215 -0.33971,-0.0318 -0.50781,-0.0332 z m -50.11328,0.22071 c 0.0338,0.30818 0.0679,0.6156 0.10156,0.92382 0.0856,-0.0468 0.17049,-0.0924 0.25781,-0.13671 -0.0433,-0.0686 -0.0853,-0.13794 -0.12695,-0.20899 -0.0852,-0.22246 -0.16336,-0.40816 -0.23242,-0.57812 z m -60.75391,0.4082 c -1.592861,2.07633 -3.180941,4.15814 -4.763672,6.24219 -0.893596,2.62044 -1.787828,5.24158 -2.677734,7.86328 0.06676,-0.0264 0.123486,-0.0636 0.150391,-0.10938 1.889994,-1.22934 3.596842,-2.72059 5.507812,-3.92187 1.112823,-0.66147 1.375598,-0.86187 2.554683,-1.38867 0.0893,-0.0399 0.17971,-0.0787 0.26954,-0.11719 -0.0195,-0.25844 -0.0288,-0.5179 -0.006,-0.77539 0.0434,-0.47722 0.44872,-1.88989 0.72265,-2.80469 -0.86411,-1.49254 -1.584716,-3.23293 -1.75781,-4.98828 z m 89.22852,0.89844 c 0.044,0.0478 0.0884,0.0951 0.13281,0.14257 0.0129,-0.004 0.0261,-0.007 0.0391,-0.0117 -0.007,-0.0392 -0.0127,-0.0799 -0.0195,-0.11914 -0.0503,-0.004 -0.10205,-0.008 -0.15234,-0.0117 z m 54.62109,1.11914 c -0.85254,0.13975 -1.68775,0.37284 -2.48633,0.73047 -0.27579,0.1235 -0.53243,0.2851 -0.79883,0.42773 -0.0464,0.0506 -0.11109,0.0938 -0.17187,0.13867 0.0299,0.0677 0.0599,0.13541 0.0898,0.20313 0.025,-0.006 0.0489,-0.008 0.0684,-0.004 0.17086,0.0339 0.3455,0.0965 0.47852,0.20899 0.47595,0.40243 0.86157,0.90505 1.32812,1.31835 0.56754,0.50277 1.0467,0.90825 1.49219,1.26758 z m -67.81055,1.44922 c -0.075,0.1027 -0.15345,0.20358 -0.23437,0.30273 0.10322,0.0243 0.20718,0.0486 0.31054,0.0723 -0.035,-0.0928 -0.0591,-0.21528 -0.0762,-0.375 z m 28.88867,0.12304 c -0.003,0.10095 -0.007,0.20181 -0.0137,0.30274 0.64414,0.11057 1.28714,0.22877 1.92774,0.35742 -0.0254,-0.16537 -0.0505,-0.33077 -0.0762,-0.49609 -0.6116,-0.0611 -1.22517,-0.11382 -1.8379,-0.16407 z m -26.5664,0.29102 c -0.4142,0.0567 -0.82944,0.11103 -1.24219,0.17187 -0.009,0.001 -0.0185,0.003 -0.0273,0.004 0.91823,0.19223 1.8422,0.35906 2.76953,0.5 -0.48068,-0.24436 -0.97824,-0.45925 -1.5,-0.67578 z m -20.89453,1.20312 c -0.54283,0.14825 -1.10913,0.32112 -1.77539,0.55078 -0.0556,0.0192 -0.16874,0.0571 -0.31641,0.10743 0.13904,0.028 0.27917,0.0516 0.41992,0.0684 0.60031,0.0716 1.20161,0.11921 1.80274,0.14843 -0.0444,-0.29168 -0.0886,-0.583 -0.13086,-0.875 z m 80.36718,0.4961 c -0.14606,0.29392 -0.29552,0.58672 -0.44726,0.87695 0.0573,0.0967 0.11707,0.19128 0.17969,0.2832 -0.005,0.0312 -0.0109,0.0628 -0.0156,0.0937 0.15306,0.0284 0.30728,0.059 0.45899,0.0723 0.12855,0.0298 0.25397,0.0671 0.37695,0.10937 -0.004,-0.0114 -0.008,-0.0238 -0.0117,-0.0352 -0.20193,-0.59123 -0.36127,-0.98764 -0.54102,-1.40039 z m -83.75585,0.72461 c -0.21624,0.13053 -0.39261,0.27353 -0.48047,0.42382 -0.004,0.007 -0.008,0.0162 -0.01,0.0215 v 0.002 0.002 0.002 0.002 0.002 h 0.002 v 0.002 0.002 h 0.002 v 0.002 h 0.002 v 0.002 h 0.002 v 0.002 h 0.002 0.002 0.002 c 0.0736,0.006 0.34849,-0.14586 0.40235,-0.25391 0.0337,-0.0677 0.057,-0.13785 0.0742,-0.21093 z m 71.75585,0.0156 c -0.003,0.009 -0.005,0.0184 -0.008,0.0274 -0.20002,0.60592 -0.37867,1.21733 -0.53906,1.83398 0.11972,-0.0413 0.23785,-0.0814 0.35742,-0.12305 0.26418,-0.5704 0.53039,-1.14019 0.80078,-1.70898 -0.20347,-0.01 -0.40772,-0.0204 -0.61133,-0.0293 z m -25.50195,0.14649 c -0.13814,0.14611 -0.27599,0.29329 -0.41406,0.43945 0.19049,0.26212 0.37556,0.52871 0.58398,0.77148 0.0232,-0.0471 0.0457,-0.0948 0.0664,-0.14257 0.30966,-0.29174 0.5829,-0.62821 0.91797,-0.88868 -0.38513,-0.0596 -0.76949,-0.1196 -1.1543,-0.17968 z m -26.70508,0.12109 c 0.0385,0.28418 0.0551,0.5683 0.0352,0.85547 -0.0203,0.29224 -0.5391,0.23083 -0.80859,0.3457 -0.0472,0.0201 -0.094,0.0402 -0.14063,0.0606 0.80125,1.12391 1.76626,2.41576 2.51758,3.20898 0.36611,0.38652 0.81428,0.68737 1.2207,1.03125 0.19545,-0.0273 0.42998,0.0389 0.58594,-0.082 0.15477,-0.12002 0.11419,-0.37862 0.2207,-0.54297 0.27451,-0.42359 0.64429,-0.78236 0.91407,-1.20898 0.50316,-0.79568 0.95282,-1.61516 1.36523,-2.45117 -1.99036,-0.2948 -3.96312,-0.70642 -5.91016,-1.2168 z m 44.99414,0.38672 c -0.20731,0.42099 -0.38487,0.86237 -0.70507,1.19922 -0.30538,0.32125 -1.38676,0.76123 -2.16016,1.05273 -0.0563,0.36263 -0.11434,0.72536 -0.17188,1.08789 0.0915,-0.003 0.18389,-0.007 0.2754,-0.01 0.36185,-0.18595 0.72008,-0.38898 1.07226,-0.60938 0.63797,-0.39924 1.19122,-0.91923 1.78711,-1.3789 0.1006,-0.13907 0.21805,-0.27005 0.33594,-0.4004 -0.13748,-0.31702 -0.28295,-0.63025 -0.4336,-0.9414 z m -28.23242,0.73437 c -1.53117,0.29779 -3.08251,0.47231 -4.64453,0.52149 -0.0621,0.44929 -0.16996,0.91745 -0.31055,1.41406 -0.4753,1.07728 -1.21174,2.75878 -2.29882,3.69922 1.4989,0.11085 2.98896,0.30256 4.49023,0.38281 0.39054,0.0241 0.78088,0.0422 1.17188,0.0586 0.22305,-0.98932 0.82259,-1.85934 1.52734,-2.61329 0.0635,-0.0617 0.12722,-0.12271 0.19141,-0.18359 -0.0173,-0.59552 0.002,-1.18965 0.0684,-1.78125 -0.004,-0.0321 -0.008,-0.0656 -0.0117,-0.0977 -0.0601,-0.46736 -0.12175,-0.93364 -0.1836,-1.40039 z m -88.76562,0.006 c -0.0484,0.0178 -0.0943,0.14655 -0.0937,0.17969 v 0.002 0.002 0.002 h 0.002 v 0.002 h 0.002 l 0.002,-0.002 h 0.002 v -0.002 h 0.002 v -0.002 l 0.002,-0.002 c 0.0446,-0.0572 0.0865,-0.11637 0.12695,-0.17773 -0.012,-6.7e-4 -0.0232,-8e-4 -0.0352,-0.002 -0.001,-5e-5 -0.003,-6e-5 -0.004,0 h -0.002 -0.002 z m 105.76758,0.16602 c -0.54581,0.13518 -1.08809,0.28259 -1.62696,0.44531 -0.50544,0.15263 -1.18415,0.36362 -1.78906,0.63867 0.0362,-8.8e-4 0.0732,-0.002 0.10937,-0.004 1.10643,-0.31784 2.21911,-0.61506 3.33594,-0.89649 -0.009,-0.0612 -0.02,-0.12237 -0.0293,-0.18359 z m -91.80665,0.19922 c -1.26148,0.16951 -2.51296,0.41 -3.75585,0.6914 0.009,0.29426 0.0232,0.58861 0.0371,0.88282 0.37909,0.1279 0.76764,0.2327 1.16797,0.3125 0.32752,0.0653 0.66442,0.0782 0.9961,0.11718 0.26646,-0.0136 0.85229,0.0758 1.08593,-0.23437 0.0548,-0.0727 0.001,-0.18323 0.0234,-0.27149 0.0563,-0.22149 0.14787,-0.43266 0.21094,-0.65234 0.10787,-0.37571 0.18033,-0.63448 0.23437,-0.8457 z m 126.57032,1.04883 c 0.16307,0.28487 0.22196,0.56398 0.20117,0.83593 0.27501,0.10199 0.56815,0.23372 1,0.45703 0.16656,0.0861 0.3311,0.17557 0.49414,0.26758 v -0.30273 c -0.57182,-0.41158 -1.13888,-0.82677 -1.69531,-1.25781 z m -72.02344,0.71484 c -0.15532,0.78402 -0.30945,1.56877 -0.46094,2.35351 0.80642,0.0831 1.61404,0.15776 2.42188,0.22657 -0.63479,-0.76238 -1.33946,-1.71201 -1.96094,-2.58008 z m -63.79688,0.38281 c -0.19663,0.0565 -0.3933,0.11269 -0.58984,0.16992 -0.0606,0.25384 -0.14657,0.47965 -0.36914,0.54688 -0.52274,0.15789 -1.07048,0.13496 -1.62305,0.0762 -0.59644,0.20531 -1.18449,0.43119 -1.75976,0.69141 -0.94005,0.42522 -1.21331,0.62645 -2.099612,1.16211 -1.853975,1.20753 -3.549962,2.63479 -5.396484,3.85156 -0.955632,0.54039 -2.012469,0.8043 -2.978516,0.44726 -0.111005,0.32835 -0.22118,0.65794 -0.332031,0.98633 -0.463917,1.34252 -0.913812,2.68935 -1.390625,4.02735 -0.308409,0.86543 -0.233634,2.05138 -0.826172,2.69336 h 22.85156 c -0.11328,-0.26721 -0.22419,-0.54961 -0.33398,-0.8418 -1.94995,-0.87252 -2.02499,-2.47396 -0.9961,-3.07227 -0.0721,-0.25419 -0.14018,-0.5003 -0.20312,-0.73633 -0.73511,-2.75676 -1.26728,-5.56516 -1.54883,-8.40429 -0.84671,-0.45609 -1.64882,-0.99543 -2.4043,-1.59766 z m 55.62891,0.20703 c 0.016,0.13437 0.0328,0.26994 0.0488,0.4043 0.0504,0.42192 0.27501,0.88923 0.38867,1.32617 0.0384,-0.0432 0.0769,-0.086 0.11524,-0.1289 -0.23638,-0.51052 -0.41169,-1.05058 -0.55274,-1.60157 z m 33.95313,0.25 c -0.57455,0.46482 -1.15522,0.92349 -1.72266,1.39649 0.0492,0.48355 0.0958,0.96719 0.14062,1.45117 0.0457,0.51733 0.0957,0.90653 0.043,1.19336 0.41201,0.40048 0.81671,0.80407 0.91016,1.34375 0.22808,1.31718 -2.251,1.65075 -3,1.76367 -0.25202,-0.006 -0.50622,0.0156 -0.75586,-0.0195 -0.63696,-0.0896 -1.19066,-0.33842 -1.64258,-0.71289 -0.82129,-0.0318 -1.64408,-0.0668 -2.46484,-0.11719 -1.53292,-0.0787 -3.05348,-0.27898 -4.58399,-0.38867 -2.48858,-0.18652 -4.97285,-0.41909 -7.45898,-0.63477 -2.0464,-0.15982 -4.09508,-0.31341 -6.13672,-0.52539 0.0891,0.23991 0.19917,0.47336 0.24414,0.72461 0.16348,0.91312 -0.34168,1.78684 -0.97265,2.41406 -0.16675,1.00882 -0.32501,2.01913 -0.47266,3.03125 -0.15833,1.31596 -0.25499,1.84175 -0.30859,3.05469 -0.003,0.0641 0.0134,0.14132 0.0332,0.22071 h 45.94531 c -0.58422,-0.28742 -1.06827,-0.79795 -1.62109,-1.15625 -0.26813,-0.61488 -0.64479,-1.19425 -0.80469,-1.84571 -0.0973,-0.39654 -0.14607,-0.85622 -0.16406,-1.33984 -0.012,0.001 -0.025,0.002 -0.0371,0.004 -0.38918,0.0399 -0.77878,0.0807 -1.16797,0.1211 -0.0888,0.3295 -0.37496,0.63198 -0.85938,0.78906 0.55295,0.38539 1.11415,0.76525 1.56836,1.26758 0.0177,0.0226 0.0346,0.0431 0.0508,0.0644 0.29531,0.18254 0.34157,0.31166 0.23829,0.40821 0.1327,0.41969 -0.29579,0.66609 -1.44727,1.45703 -0.14815,0.10176 -0.306,-0.18887 -0.45898,-0.28321 -0.33877,-0.20891 -0.44594,-0.36251 -0.4043,-0.48047 -0.29483,-0.22871 -0.64551,-0.40282 -0.91797,-0.64257 -0.76105,-0.52881 -1.53303,-1.0496 -2.24609,-1.64258 -0.12554,-0.12987 -0.27014,-0.2793 -0.38672,-0.44531 -1.46046,0.13919 -2.92136,0.266 -4.38477,0.36718 -0.69361,0.048 -1.38886,0.089 -2.08398,0.10352 -0.22131,0.005 -0.68401,0.17354 -0.66211,-0.0469 0.0763,-0.76799 0.34004,-1.49802 0.60742,-2.22851 -0.17473,-0.0697 -0.3198,-0.18039 -0.41992,-0.35352 -0.45651,-0.78931 0.19561,-1.77495 0.46094,-2.6914 -0.85755,-0.43357 -1.80506,-0.85294 -2.08789,-1.93555 -0.24187,-0.92583 -0.0349,-1.63836 0.41015,-2.20703 -0.0305,-0.1674 -0.0629,-0.33451 -0.0996,-0.5 0.0759,-0.0222 0.15257,-0.0445 0.22852,-0.0664 0.004,-0.0837 0.10598,-0.0908 0.22851,-0.082 -0.44597,-0.27619 -0.89063,-0.55268 -1.33593,-0.83008 z m 15,12.50782 c -0.037,-0.11705 -0.11774,-0.2486 -0.23829,-0.40821 -0.0447,-0.0276 -0.0959,-0.0557 -0.15234,-0.0859 -0.11947,-0.0639 -0.2538,-0.27868 -0.35742,-0.1914 -0.9503,0.80043 -1.3806,1.00176 -1.42774,1.24219 0.45964,-0.26457 1.89003,-0.28948 2.17579,-0.55664 z m 29.43164,-10.70508 c -0.14368,-3.6e-4 -0.62216,0.21128 -0.66016,0.28125 v 0.002 l -0.002,0.002 v 0.002 0.002 0.002 0.002 h 0.002 v 0.002 l 0.002,0.002 0.002,0.002 h 0.002 l 0.002,0.002 h 0.002 0.002 c 0.11255,0.03 0.23364,0.008 0.34766,-0.0156 0.0772,-0.0161 0.15566,-0.10569 0.22656,-0.1289 0.0718,-0.0602 0.10609,-0.1006 0.11328,-0.125 l 0.002,-0.002 v -0.002 -0.002 -0.002 -0.002 l -0.002,-0.002 v -0.002 -0.002 l -0.002,-0.002 v -0.002 l -0.002,-0.002 h -0.002 l -0.002,-0.002 c -0.007,-0.003 -0.0188,-0.008 -0.0312,-0.008 z m 0.0762,0.29101 c 0.018,0.0861 0.0102,0.19041 0.0391,0.27149 0.0983,0.27681 0.21185,0.54849 0.31836,0.82226 0.08,0.14516 0.16187,0.29014 0.24609,0.43555 0.0656,-0.41386 0.15027,-0.82032 0.29102,-1.20898 -0.29127,-0.12159 -0.58852,-0.23001 -0.89453,-0.32032 z m -7.4336,1.47266 c -0.0747,0.0887 -0.14815,0.17701 -0.2207,0.26758 0.12355,-0.0602 0.19153,-0.15252 0.2207,-0.26758 z m -68.54882,0.5293 c -0.6211,0.74767 -1.29569,1.70392 -1.14258,2.24414 h 0.002 v 0.002 h 0.002 0.002 l 0.002,0.002 v 0.002 h 0.002 0.002 0.002 0.002 0.002 0.002 0.002 v -0.002 h 0.002 c 8.3e-4,-6.7e-4 0.003,-0.003 0.004,-0.004 0.039,-0.0557 0.0111,-0.36441 0.125,-0.37891 0.17137,-0.0218 0.33379,0.093 0.50391,0.12305 0.15967,0.0282 0.32771,0.0403 0.49219,0.0488 -0.002,-0.67861 -0.004,-1.35845 -0.006,-2.03711 z m 73.27734,0.17187 c 0.10478,0.4897 0.25921,0.96772 0.4082,1.44531 0.66431,2.12948 -1.48889,2.79967 -2.15234,0.66993 -0.006,-0.0207 -0.0131,-0.0418 -0.0195,-0.0625 -0.17381,0.41144 -0.36621,0.80137 -0.58203,1.1582 -0.24925,0.41211 -0.58496,0.76543 -0.87696,1.14844 -0.33368,0.26561 -0.64387,0.56221 -1,0.79687 -0.50821,0.33487 -1.56672,0.77551 -2.11718,0.98828 -1.41227,0.54591 -2.86973,0.97163 -4.36133,1.23828 -1.14748,0.12322 -2.3042,0.35549 -3.45703,0.0371 -0.21474,-0.0593 -0.41446,-0.12735 -0.60157,-0.20312 -1.10193,0.69978 -2.2494,1.34481 -3.3496,1.83789 -0.68927,0.30891 -1.50279,0.64158 -2.34961,0.87305 h 26.58984 v -2.75586 c -0.21624,-0.11822 -0.42961,-0.2412 -0.63086,-0.38282 -1.77875,-1.25165 -3.5896,-3.37399 -4.70117,-5.22851 -0.30061,-0.50155 -0.53551,-1.03848 -0.79883,-1.56055 z m -6.73828,0.61133 c -0.70812,0.75579 -1.45134,1.4883 -2.23242,2.19726 -0.47505,0.38997 -0.94152,0.78993 -1.41211,1.18555 0.99991,-0.23289 1.98111,-0.54342 2.9375,-0.91797 0.42136,-0.16501 1.29358,-0.52547 1.69726,-0.80468 0.15957,-0.11037 0.28022,-0.26969 0.41993,-0.4043 0.21362,-0.37645 0.39979,-0.76528 0.56445,-1.16406 -0.02,0.003 -0.0404,0.005 -0.0605,0.008 -0.62331,0.0812 -1.36666,0.28042 -1.88281,-0.0781 -0.0103,-0.007 -0.0215,-0.0141 -0.0312,-0.0215 z m -61.99024,0.26172 c -0.0869,0.48355 -0.17234,0.96705 -0.25585,1.45117 0.24667,-0.22543 0.40354,-0.54695 0.39062,-0.95703 -0.005,-0.17289 -0.0616,-0.335 -0.13477,-0.49414 z m 56.34961,0.54297 c -0.47604,0.14312 -0.9556,0.28336 -1.43359,0.41992 -0.0233,0.22812 -0.0456,0.45581 -0.0684,0.68359 -6.3e-4,0.0366 -0.003,0.076 -0.006,0.11914 h 0.002 v -0.002 l 0.002,-0.002 h 0.002 c 0.51284,-0.38993 1.00988,-0.80275 1.50195,-1.21875 z m -139.632809,2.02539 c -0.226072,0.097 -0.438056,0.18202 -0.636718,0.2539 v 5.77149 c 0.05778,-0.23803 0.143769,-0.49202 0.15625,-0.69141 0.111536,-1.7816 0.330893,-3.55519 0.480468,-5.33398 z m 134.996099,1.08008 c -0.0514,0.0206 -0.11705,0.0281 -0.18946,0.0273 -0.20501,0.10531 -0.59703,-0.001 -0.89453,0 -0.20422,0.41888 -0.40081,0.81542 -0.57617,1.16211 0.58952,-0.30429 1.1592,-0.62386 1.71484,-0.96094 -0.0201,-0.075 -0.0379,-0.15162 -0.0547,-0.22851 z m -5.22852,0.6914 c -0.0467,-5e-4 -0.0923,1.4e-4 -0.13672,0.004 0.0114,0.12955 0.0236,0.26852 0.0371,0.41797 0.0819,-0.13839 0.16332,-0.27631 0.24219,-0.41602 -0.0481,-0.003 -0.0959,-0.005 -0.14258,-0.006 z" />
    </clipPath>
  </defs>
  <g
     id="svgg"
     transform="translate(-49.609,-91.607889)">
    <path
       id="path0"
       d="m 125.035,98.69 c -11.212,20.946 -32.265,34.774 -52.943,34.774 -3.247,0 -5.883,0.015 -5.859,0.034 1.058,0.836 11.293,3.729 16.059,4.539 9.895,1.682 27.309,0.104 33.356,-3.023 2.677,-1.384 -3.2,4.853 -6.849,7.269 -6.175,4.089 -14.695,6.665 -22.067,6.673 -2.663,0.003 -2.087,0.355 1.679,1.024 16.991,3.019 37.565,-1.323 51.678,-10.907 l 1.632,-1.108 -1.461,-0.819 c -10.209,-5.716 -17.937,-29.364 -13.449,-41.153 0.589,-1.546 0.088,-0.785 -1.776,2.697 m 36.163,24.878 v 15.234 h 3.385 3.386 v -5.729 -5.729 l 3.45,-0.002 c 9.353,-0.004 13.338,-2.894 13.327,-9.663 -0.011,-7.079 -4.083,-9.319 -16.973,-9.337 l -6.575,-0.009 v 15.235 m 26.282,-15.17 c -0.01,0.036 -0.084,6.892 -0.164,15.235 l -0.145,15.169 h 3.273 3.274 l 0.081,-6.836 c 0.106,-8.943 0.488,-9.827 4.344,-10.045 4.398,-0.248 4.828,0.606 4.932,9.793 l 0.081,7.104 3.125,-0.073 3.125,-0.073 -0.023,-7.781 c -0.026,-8.881 -0.127,-9.401 -2.207,-11.319 -3.062,-2.822 -9.378,-2.9 -12.293,-0.151 -0.52,0.49 -0.988,0.892 -1.039,0.892 -0.052,0 -0.094,-2.696 -0.094,-5.99 v -5.99 h -3.125 c -1.719,0 -3.134,0.03 -3.145,0.065 m -12.026,5.18 c 2.032,0.973 2.938,3.248 2.289,5.75 -0.673,2.594 -2.683,3.589 -7.252,3.589 h -2.522 v -5.115 -5.115 l 3.19,0.181 c 2.388,0.136 3.468,0.315 4.295,0.71 m 45.005,4.287 c -10.744,2.599 -11.25,17.112 -0.72,20.659 6.608,2.226 14.69,-0.636 16.753,-5.932 3.619,-9.291 -5.162,-17.356 -16.033,-14.727 m 26.019,0.069 c -5.802,1.662 -8.77,9.242 -6.003,15.33 2.636,5.799 11.4,7.742 16.036,3.554 l 1.109,-1.002 -0.109,2.477 c -0.193,4.418 -1.678,6.041 -5.672,6.198 -2.739,0.107 -4.046,-0.413 -5.169,-2.056 -0.655,-0.958 -0.773,-1.021 -1.618,-0.865 -0.501,0.093 -1.76,0.308 -2.796,0.477 -2.345,0.383 -2.334,0.37 -1.597,1.846 3.131,6.269 15.933,7.261 20.781,1.61 2.51,-2.926 2.653,-3.875 2.565,-16.987 l -0.073,-10.677 -3.19,-0.074 -3.19,-0.073 v 1.306 1.307 l -1.331,-1.008 c -2.446,-1.851 -6.203,-2.377 -9.743,-1.363 m -19.195,4.344 c 6.058,2.531 4.007,12.479 -2.568,12.457 -6.035,-0.02 -8.726,-8.396 -3.79,-11.792 1.668,-1.148 4.496,-1.443 6.358,-0.665 m 26.684,0.004 c 5.231,1.783 5.053,10.087 -0.256,11.982 -4.122,1.471 -7.731,-1.341 -7.722,-6.018 0.01,-4.899 3.483,-7.495 7.978,-5.964"
       stroke="none"
       fill="#db0810"
       fill-rule="evenodd"
       style="display:inline" />
    <path
       id="path1"
       d="m 268.49,123.568 v 15.234 h 3.255 3.255 l 0.006,-6.706 c 0.007,-8.957 0.468,-9.988 4.55,-10.168 4.069,-0.179 4.394,0.503 4.559,9.57 l 0.13,7.174 3.19,0.073 3.19,0.073 v -7.513 c 0,-8.424 -0.141,-9.369 -1.659,-11.142 -2.868,-3.352 -9.884,-3.769 -13.057,-0.777 L 275,120.244 v -5.955 -5.956 h -3.255 -3.255 v 15.235 m 63.206,-6 c -1.395,0.364 -2.886,1.449 -3.766,2.742 l -0.586,0.861 v -1.731 -1.732 h -3.125 -3.125 v 10.555 10.555 l 3.123,-0.073 3.124,-0.073 0.121,-6.084 c 0.18,-9.067 1.389,-11.006 6.371,-10.219 1.507,0.239 1.3,0.52 1.942,-2.633 l 0.356,-1.749 -0.813,-0.245 c -1.518,-0.459 -2.373,-0.5 -3.622,-0.174 m -30.394,0.352 c -8.085,2.114 -10.943,12.034 -5.163,17.924 5.64,5.748 17.719,4.259 21.03,-2.593 4.552,-9.423 -4.608,-18.274 -15.867,-15.331 m 47.656,-0.228 c -1.177,0.36 -3.245,1.512 -3.776,2.102 l -0.521,0.58 -0.13,-1.268 -0.13,-1.267 -3.19,-0.074 -3.19,-0.073 v 10.555 10.555 h 3.255 3.255 l 0.002,-6.445 c 0.002,-8.504 0.514,-9.886 3.838,-10.343 4.651,-0.639 5.532,1.007 5.534,10.343 l 0.001,6.445 h 3.255 3.256 l -0.004,-6.966 c -0.006,-9.192 -0.411,-10.832 -3.169,-12.83 -1.882,-1.363 -5.994,-2.015 -8.286,-1.314 m -39.799,5.107 c 6.089,4.275 1.075,14.53 -5.717,11.692 -4.916,-2.053 -4.949,-10.284 -0.049,-12.339 1.371,-0.575 4.53,-0.221 5.766,0.647 m -258.654,5.326 c 7.871,10.303 26.431,21.115 35.823,20.867 11.031,-0.29 20.566,-4.046 27.279,-10.745 3.038,-3.032 3.125,-3.328 0.647,-2.199 -19.749,9 -45.837,5.604 -63.603,-8.281 l -1.042,-0.814 0.896,1.172"
       stroke="none"
       fill="#062d92"
       fill-rule="evenodd"
       style="display:inline" />
    <path
       id="path3"
       d="m 130.61516,92.84149 c -7.493,3.856 -2.214,31.6 7.934,41.699 5.028,5.003 8.109,2.231 8.734,-7.859 0.99,-15.973 -9.602,-37.476 -16.668,-33.84 m -7.622,13.397 c 0,0.501 0.054,0.706 0.119,0.456 0.066,-0.251 0.066,-0.661 0,-0.912 -0.065,-0.25 -0.119,-0.045 -0.119,0.456 m 61.757,8.333 c 0,1.648 0.042,2.321 0.094,1.498 0.052,-0.824 0.052,-2.171 0,-2.995 -0.052,-0.824 -0.094,-0.15 -0.094,1.497 m -18.523,0.19 c 0.537,0.056 1.416,0.056 1.953,0 0.537,-0.056 0.098,-0.102 -0.976,-0.102 -1.075,0 -1.514,0.046 -0.977,0.102 m -57.243,3.261 -0.765,0.846 0.847,-0.765 c 0.465,-0.42 0.846,-0.801 0.846,-0.846 0,-0.201 -0.215,-0.024 -0.928,0.765 m 89.144,1.16 c 0.322,0.062 0.85,0.062 1.172,0 0.322,-0.062 0.059,-0.113 -0.586,-0.113 -0.644,0 -0.908,0.051 -0.586,0.113 m 8.773,14.139 c 0,3.796 0.036,5.349 0.081,3.451 0.044,-1.898 0.044,-5.003 0,-6.901 -0.045,-1.898 -0.081,-0.345 -0.081,3.45 m 29.915,-3.255 c 0.001,0.86 0.05,1.18 0.108,0.712 0.058,-0.468 0.056,-1.171 -0.003,-1.563 -0.059,-0.391 -0.107,-0.008 -0.105,0.851 m 6.5,0.13 c 0,0.645 0.051,0.909 0.113,0.586 0.062,-0.322 0.062,-0.849 0,-1.172 -0.062,-0.322 -0.113,-0.058 -0.113,0.586 m -158.466003,10.341 c 0.324,0.062 0.793,0.06 1.042,-0.005 0.249,-0.066 -0.016,-0.117 -0.589,-0.114 -0.573,0.003 -0.777,0.057 -0.453,0.119"
       stroke="none"
       fill="#fbc30c"
       fill-rule="evenodd"
       style="display:inline"
       clip-path="url(#clipPath39)"
       transform="translate(1.2401042,-0.82673615)" />
  </g>
</svg>
